<svg width="58" height="58" viewBox="0 0 58 58" fill="none" xmlns="http://www.w3.org/2000/svg">
<rect width="58" height="58" rx="29" fill="#EADDFF"/>
<path fill-rule="evenodd" clip-rule="evenodd" d="M37.7004 23.2C37.7004 28.0049 33.8052 31.9 29.0004 31.9C24.1955 31.9 20.3004 28.0049 20.3004 23.2C20.3004 18.3951 24.1955 14.5 29.0004 14.5C33.8052 14.5 37.7004 18.3951 37.7004 23.2ZM34.8004 23.2C34.8004 26.4033 32.2036 29 29.0004 29C25.7971 29 23.2004 26.4033 23.2004 23.2C23.2004 19.9967 25.7971 17.4 29.0004 17.4C32.2036 17.4 34.8004 19.9967 34.8004 23.2Z" fill="#4F378A"/>
<path d="M29.0004 36.25C19.6125 36.25 11.6138 41.8012 8.56689 49.5785C9.30914 50.3155 10.091 51.0127 10.9091 51.6665C13.178 44.5262 20.2956 39.15 29.0004 39.15C37.7051 39.15 44.8227 44.5262 47.0916 51.6665C47.9097 51.0127 48.6916 50.3155 49.4338 49.5785C46.3869 41.8012 38.3882 36.25 29.0004 36.25Z" fill="#4F378A"/>
</svg>
